# xmcd
#
# Track frame offsets:
#	150
#	16271
#	31305
#	45224
#	59374
#	74046
#	90177
#	106919
#
# Disc length: 1651 seconds
#
# Revision: 0
# Processed by: cddbd v1.5.2PL0 Copyright (c) Steve Scherf et al.
# Submitted via: dBpowerAMP V4.0
#
DISCID=59067108
DTITLE=Frankie Ballard - Frankie Ballard
DYEAR=2011
DGENRE=Country
TTITLE0=A buncha Girls
TTITLE1=Single Again
TTITLE2=Place to lay Your Head
TTITLE3=Tell Me You Get Lonely
TTITLE4=Get On Down the Road
TTITLE5=Sober Me Up
TTITLE6=Rescue Me
TTITLE7=Grandpa's Farm
EXTD=
EXTT0=
EXTT1=
EXTT2=
EXTT3=
EXTT4=
EXTT5=
EXTT6=
EXTT7=
PLAYORDER=
